<svg width="30" height="26" viewBox="0 0 30 26" fill="none" xmlns="http://www.w3.org/2000/svg">
<path d="M21.8183 0.797485H8.18141C8.0839 0.797559 7.98811 0.822913 7.90365 0.870996C7.81918 0.91908 7.74899 0.988215 7.70011 1.07148L0.88183 12.7257C0.833132 12.809 0.807495 12.9036 0.807495 12.9998C0.807495 13.096 0.833132 13.1906 0.88183 13.274L7.70047 24.9282C7.74928 25.0115 7.81944 25.0807 7.90391 25.1289C7.98839 25.177 8.08421 25.2024 8.18177 25.2025H21.8187C21.9162 25.2024 22.0121 25.177 22.0965 25.1289C22.181 25.0807 22.2512 25.0115 22.3 24.9282L29.1183 13.274C29.167 13.1906 29.1926 13.096 29.1926 12.9998C29.1926 12.9036 29.167 12.809 29.1183 12.7257L22.3 1.07148C22.2511 0.988163 22.1808 0.918988 22.0963 0.870901C22.0118 0.822814 21.9159 0.797497 21.8183 0.797485Z" fill="#FFFEF8"/>
<path d="M21.8182 25.999H8.18131C7.94195 25.9985 7.70692 25.936 7.49968 25.8179C7.29244 25.6997 7.12025 25.5299 7.00033 25.3255L0.182051 13.6713C0.0625385 13.4665 -0.000366211 13.2343 -0.000366211 12.9979C-0.000366211 12.7615 0.0625385 12.5293 0.182051 12.3244L7.00033 0.670273C7.12023 0.465838 7.29241 0.296037 7.49965 0.177857C7.7069 0.0596759 7.94195 -0.00274329 8.18131 -0.00317383H21.8182C22.0576 -0.00274329 22.2926 0.0596759 22.4999 0.177857C22.7071 0.296037 22.8793 0.465838 22.9992 0.670273L29.8175 12.3244C29.937 12.5293 29.9999 12.7615 29.9999 12.9979C29.9999 13.2343 29.937 13.4665 29.8175 13.6713L22.9992 25.3255C22.8793 25.5299 22.7071 25.6997 22.4998 25.8179C22.2926 25.936 22.0576 25.9985 21.8182 25.999ZM8.32713 24.4039H21.6724L28.3448 12.9989L21.6724 1.59395H8.32713L1.65468 12.9989L8.32713 24.4039Z" fill="#FF858D"/>
<path d="M20.1129 17.5327L12.3464 8.46741H9.88708L17.6536 17.5327H20.1129Z" fill="#FF858D"/>
<path d="M12.3464 17.5327L20.1129 8.46741H17.6536L9.88708 17.5327H12.3464Z" fill="#FF858D"/>
</svg>
