<svg width="31" height="28" viewBox="0 0 31 28" fill="none" xmlns="http://www.w3.org/2000/svg">
<path d="M22.6647 1.82239H8.77223C8.67287 1.82239 8.57526 1.8485 8.48919 1.89809C8.40313 1.94768 8.33163 2.01901 8.28189 2.10491L1.33565 14.122C1.28586 14.2079 1.25964 14.3054 1.25964 14.4047C1.25964 14.504 1.28586 14.6015 1.33565 14.6874L8.28189 26.7045C8.33153 26.7905 8.40299 26.8619 8.48907 26.9116C8.57515 26.9613 8.67282 26.9874 8.77223 26.9874H22.6647C22.7641 26.9874 22.8618 26.9613 22.9478 26.9116C23.0339 26.8619 23.1054 26.7905 23.155 26.7045L30.1009 14.6874C30.1505 14.6014 30.1766 14.5039 30.1766 14.4047C30.1766 14.3055 30.1505 14.208 30.1009 14.122L23.1547 2.10491C23.1049 2.01906 23.0335 1.94776 22.9475 1.89818C22.8615 1.84859 22.764 1.82245 22.6647 1.82239Z" fill="#FFFEF8"/>
<path d="M22.6647 27.8095H8.77223C8.52833 27.8091 8.2888 27.7447 8.07761 27.6229C7.86641 27.501 7.69093 27.3259 7.56872 27.1151L0.622482 15.098C0.500726 14.8868 0.436646 14.6473 0.436646 14.4036C0.436646 14.1599 0.500726 13.9204 0.622482 13.7092L7.56872 1.6921C7.6909 1.48124 7.86637 1.30612 8.07758 1.18426C8.28878 1.0624 8.52832 0.998061 8.77223 0.997681H22.6647C22.9086 0.998171 23.1481 1.06256 23.3593 1.18441C23.5705 1.30626 23.7459 1.48132 23.8682 1.6921L30.8145 13.7092C30.9362 13.9204 31.0003 14.1599 31.0003 14.4036C31.0003 14.6473 30.9362 14.8868 30.8145 15.098L23.8682 27.1151C23.746 27.3259 23.5705 27.501 23.3593 27.6228C23.1481 27.7447 22.9086 27.8091 22.6647 27.8095ZM8.92079 26.1648H22.5161L29.3142 14.4047L22.5161 2.64454H8.92042L2.12275 14.4047L8.92079 26.1648Z" fill="#4DD865"/>
<path d="M23.0014 9.88855L19.6247 13.8782L15.7584 18.4452H15.7394L15.7529 18.4613L14.6072 19.8169L8.97974 13.1684H11.2729L14.6024 17.1021L14.609 17.1098L20.7363 9.88855H23.0014Z" fill="#4DD865"/>
</svg>
