<svg id="a25d1cd0-7546-44b6-ab4e-9abffe73d1db" data-name="Слой 1" xmlns="http://www.w3.org/2000/svg" viewBox="0 0 78.01 108.1">
  <path d="M78,.1v92a33.54,33.54,0,0,0-6.8-5.6,36.69,36.69,0,0,0-21.7-4.9,14.78,14.78,0,0,0-7.6,2.6c-7.2,5.3-3,11.5-7.6,18.4-6,8.9-19,5.7-25.7-.5A26.33,26.33,0,0,1,0,84c-.2-5.6,3.1-14.5,10.1-14.3,4.4.2,11.4-.3,12.9-5.4,1.9-6.1-4.7-11.2-8.3-15-8.6-8.9-8.2-22.8-2-33,5.6-9.1,16.1-13.1,26.5-14.4A197.44,197.44,0,0,1,60.81.5C61.91.4,75,.4,78,.1Z" transform="translate(0)" fill="#f9b148"/>
  <line x1="78.01" y1="92.1" x2="78.01" fill="none"/>
</svg>
