<svg width="311" height="400" viewBox="0 0 311 400" fill="none" xmlns="http://www.w3.org/2000/svg">
<path fill-rule="evenodd" clip-rule="evenodd" d="M0 301.507C0.189139 278.711 13.6741 245.475 40.59 246.46C58.06 247.1 86.36 245.17 92.59 224.73C99.0019 203.67 80.3104 185.417 65.6818 171.131C63.3135 168.819 61.0516 166.61 59.02 164.51C24.35 128.67 26.12 72.57 50.99 31.74C58.9056 18.7473 69.1789 8.30805 80.9687 0L311 0V334.009C303.459 326.486 295.385 319.554 286.19 313.86C261.2 298.4 227.97 291.39 198.8 293.96C187.96 294.92 177.09 298.08 168.37 304.6C151.984 316.844 150.354 330.128 148.601 344.415C147.269 355.273 145.866 366.71 137.86 378.71C129.574 391.131 117.895 397.723 105.047 400H82.55C64.693 397.193 46.991 388.297 34.64 376.85C14.7 358.36 0.96 331.27 0.03 303.89C0.014014 303.423 0.00401358 302.951 0 302.474V301.507Z" fill="#F9B148"/>
</svg>
