<svg width="242" height="646" viewBox="0 0 242 646" fill="none" xmlns="http://www.w3.org/2000/svg">
<path fill-rule="evenodd" clip-rule="evenodd" d="M0 0.966133C7.53815 26.2877 17.6904 50.8086 36.1167 70.2379C42.4089 76.8804 49.5086 82.7502 57.2829 87.59C59.8033 89.1618 62.3858 90.6182 65.0304 91.968C82.0791 100.652 100.839 104.803 119.532 108.939C145.949 114.785 172.232 120.6 193.358 139.14C239.054 179.226 262.563 270.577 218.66 320.396C195.888 346.237 165.075 339.177 141.938 318.406C123.941 302.244 85.9303 311.773 80.7475 360.206C76.5315 399.601 95.9296 421.908 115.06 443.907C125.327 455.713 135.517 467.43 141.938 481.653C182.294 571.026 92.1794 672.191 0 639.83L0 0.966133Z" fill="#F9B148"/>
</svg>
