<svg width="32" height="28" viewBox="0 0 32 28" fill="none" xmlns="http://www.w3.org/2000/svg">
<path d="M22.5522 0.858841H8.44998C8.35097 0.858749 8.25367 0.885517 8.16793 0.93645C8.08218 0.987383 8.01102 1.06068 7.96161 1.14894L0.910498 13.7097C0.860916 13.7979 0.834808 13.8979 0.834808 13.9998C0.834808 14.1017 0.860916 14.2017 0.910498 14.2899L7.96161 26.8507C8.01107 26.9389 8.08225 27.0121 8.16798 27.0631C8.25371 27.114 8.35098 27.1408 8.44998 27.1408H22.5522C22.6512 27.1407 22.7485 27.1139 22.8343 27.063C22.9201 27.0121 22.9914 26.9389 23.0409 26.8507L30.0921 14.2899C30.1415 14.2017 30.1675 14.1016 30.1675 13.9998C30.1675 13.898 30.1415 13.7979 30.0921 13.7097L23.0409 1.14894C22.9914 1.0607 22.9202 0.987435 22.8344 0.93651C22.7486 0.885586 22.6513 0.858798 22.5522 0.858841Z" fill="#FFFEF8"/>
<path d="M13.552 15.6705C13.5381 15.7247 13.5138 15.7755 13.4806 15.8199C13.4474 15.8643 13.406 15.9015 13.3587 15.9293L8.93428 18.5566C8.87147 18.594 8.80016 18.6138 8.72757 18.6139C8.69108 18.6139 8.65477 18.6089 8.61958 18.599C8.56695 18.5848 8.51761 18.5599 8.47447 18.5258C8.43132 18.4917 8.39524 18.4491 8.36833 18.4005L8.04027 17.8165C7.9855 17.7185 7.97073 17.6023 7.99918 17.4931C8.02763 17.384 8.097 17.291 8.19206 17.2344L12.6168 14.6067C12.6639 14.5786 12.7159 14.5605 12.7698 14.5532C12.8238 14.5459 12.8786 14.5497 12.9311 14.5643C12.9837 14.5787 13.033 14.6036 13.0761 14.6377C13.1192 14.6718 13.1553 14.7143 13.1824 14.7628L13.5104 15.3472C13.5379 15.3956 13.5557 15.4491 13.5628 15.5046C13.5699 15.5601 13.5663 15.6165 13.552 15.6705Z" fill="#2F6B75"/>
<path d="M22.5518 27.9996H8.44954C8.20401 27.9993 7.96287 27.9326 7.75024 27.8064C7.5376 27.6801 7.36092 27.4986 7.23787 27.2801L0.18676 14.7193C0.0643991 14.5004 0 14.2523 0 13.9998C0 13.7473 0.0643991 13.4992 0.18676 13.2803L7.23787 0.719514C7.36095 0.501009 7.53763 0.319557 7.75026 0.193294C7.96289 0.0670312 8.20402 0.000379909 8.44954 0H22.5518C22.7973 0.000341472 23.0384 0.0669762 23.2511 0.193243C23.4637 0.31951 23.6404 0.500983 23.7634 0.719514L30.8145 13.2803C30.9369 13.4992 31.0013 13.7473 31.0013 13.9998C31.0013 14.2523 30.9369 14.5004 30.8145 14.7193L27.289 20.9997L23.7634 27.2801C23.6404 27.4986 23.4637 27.6801 23.2511 27.8064C23.0384 27.9326 22.7973 27.9993 22.5518 27.9996ZM8.60689 26.2819H22.3955L29.2896 13.9998L22.3955 1.71767H8.60689L1.71313 13.9998L8.60689 26.2819Z" fill="#2F6B75"/>
<path d="M21.5751 12.8455L19.322 8.83152C19.2496 8.70319 19.1457 8.59664 19.0208 8.52249C18.8958 8.44835 18.7541 8.4092 18.6099 8.40897H14.1042C13.9599 8.40909 13.8181 8.44823 13.6931 8.52246C13.5682 8.59668 13.4643 8.7034 13.3921 8.8319L11.1398 12.8451C11.0679 12.9738 11.0301 13.1197 11.0301 13.2681C11.0301 13.4165 11.0679 13.5623 11.1398 13.691L13.3928 17.7046C13.4651 17.8331 13.569 17.9398 13.6939 18.014C13.8189 18.0882 13.9607 18.1274 14.105 18.1276H18.6106C18.7549 18.1273 18.8966 18.088 19.0216 18.0138C19.1465 17.9396 19.2504 17.833 19.3228 17.7046L21.5758 13.691C21.6475 13.5623 21.6852 13.4165 21.6851 13.2682C21.685 13.1198 21.647 12.9741 21.5751 12.8455ZM20.3133 13.2681L18.3356 16.7916H14.38L12.4023 13.2681L14.38 9.74494H18.3356L20.3133 13.2681Z" fill="#2F6B75"/>
</svg>
