<svg width="22" height="16" viewBox="0 0 22 16" fill="none" xmlns="http://www.w3.org/2000/svg">
<path d="M4.47025 1H0.186746C0.0836089 1 0 1.08185 0 1.18282V1.95696C0 2.05793 0.0836089 2.13978 0.186746 2.13978H4.47025C4.57339 2.13978 4.657 2.05793 4.657 1.95696V1.18282C4.657 1.08185 4.57339 1 4.47025 1Z" fill="#FFFEF8"/>
<path d="M10.6204 14.5255L9.83425 15.8577C9.80864 15.9012 9.7717 15.9373 9.72719 15.9623C9.68269 15.9873 9.63222 16.0003 9.58091 15.9999H8.01011C7.95904 16 7.90885 15.9869 7.86461 15.9619C7.82038 15.937 7.78366 15.901 7.75817 15.8577L6.973 14.5255C6.94758 14.4822 6.9342 14.4332 6.9342 14.3833C6.9342 14.3333 6.94758 14.2843 6.973 14.241L7.75909 12.9084C7.78458 12.8651 7.82131 12.8291 7.86555 12.8041C7.90978 12.7791 7.95998 12.766 8.01104 12.7661H9.58091C9.63198 12.766 9.68217 12.7791 9.72641 12.8041C9.77065 12.8291 9.80736 12.8651 9.83285 12.9084L10.619 14.241C10.6446 14.2842 10.6582 14.3331 10.6584 14.3831C10.6587 14.433 10.6456 14.4821 10.6204 14.5255V14.5255Z" fill="#FFFEF8"/>
<path d="M9.41745 14.4318L9.15014 14.885C9.14142 14.8997 9.12891 14.9119 9.11388 14.9203C9.09884 14.9288 9.0818 14.9333 9.06444 14.9333H8.52935C8.512 14.9333 8.49496 14.9288 8.47992 14.9203C8.46488 14.9119 8.45239 14.8997 8.44367 14.885L8.17636 14.4318C8.16766 14.417 8.16307 14.4003 8.16307 14.3832C8.16307 14.3662 8.16766 14.3494 8.17636 14.3347L8.44367 13.8815C8.45239 13.8668 8.46488 13.8546 8.47992 13.8461C8.49496 13.8377 8.512 13.8332 8.52935 13.8332H9.06444C9.0818 13.8332 9.09884 13.8377 9.11388 13.8461C9.12891 13.8546 9.14142 13.8668 9.15014 13.8815L9.41745 14.3347C9.42615 14.3494 9.43074 14.3662 9.43074 14.3832C9.43074 14.4003 9.42615 14.417 9.41745 14.4318V14.4318Z" fill="#2F6B75"/>
<path d="M15.6494 11.7446H7.36643C7.18892 11.7444 7.01459 11.6985 6.86087 11.6117C6.70714 11.5248 6.5794 11.3999 6.49044 11.2495L2.43607 4.37435C2.34416 4.21829 2.308 4.0367 2.3333 3.85827C2.3586 3.67985 2.44393 3.51477 2.57578 3.38912C2.73654 3.24028 2.95016 3.15853 3.17141 3.16117H19.8435C20.0647 3.15848 20.2783 3.24024 20.4391 3.38912C20.5709 3.51469 20.6562 3.6797 20.6815 3.85804C20.7068 4.03639 20.6707 4.21791 20.5788 4.37389L16.5249 11.2481C16.4361 11.3987 16.3086 11.5238 16.1549 11.611C16.0013 11.6981 15.8269 11.7442 15.6494 11.7446V11.7446ZM7.7348 10.6048H15.2791C15.3641 10.6045 15.4475 10.5824 15.521 10.5407C15.5946 10.4991 15.6557 10.4393 15.6983 10.3673L19.11 4.58179C19.1267 4.55337 19.1356 4.52114 19.1356 4.48834C19.1356 4.45553 19.1267 4.42329 19.11 4.39488C19.0932 4.36646 19.0691 4.34287 19.0401 4.32646C19.0111 4.31005 18.9782 4.30141 18.9447 4.3014H4.06416C4.03064 4.30141 3.99772 4.31005 3.9687 4.32646C3.93968 4.34287 3.91557 4.36646 3.89882 4.39488C3.88206 4.42329 3.87325 4.45553 3.87325 4.48834C3.87325 4.52114 3.88207 4.55337 3.89883 4.58179L7.31101 10.3673C7.35394 10.44 7.41576 10.5003 7.4902 10.542C7.56463 10.5837 7.64903 10.6054 7.7348 10.6048Z" fill="#FFFEF8"/>
<path d="M16.0423 14.5255L15.2562 15.8577C15.2307 15.901 15.194 15.937 15.1498 15.9619C15.1055 15.9869 15.0554 16 15.0043 15.9999H13.433C13.3819 16 13.3318 15.9869 13.2875 15.9619C13.2433 15.937 13.2066 15.901 13.1811 15.8577L12.395 14.5255C12.3696 14.4822 12.3562 14.4332 12.3562 14.3832C12.3562 14.3333 12.3696 14.2843 12.395 14.241L13.1811 12.9084C13.2066 12.8651 13.2433 12.8291 13.2875 12.8041C13.3318 12.7791 13.3819 12.766 13.433 12.7661H15.0043C15.0554 12.766 15.1055 12.7791 15.1498 12.8041C15.194 12.8291 15.2307 12.8651 15.2562 12.9084L16.0423 14.241C16.0677 14.2843 16.0811 14.3333 16.0811 14.3832C16.0811 14.4332 16.0677 14.4822 16.0423 14.5255V14.5255Z" fill="#FFFEF8"/>
<path d="M14.8385 14.4318L14.5712 14.885C14.5625 14.8997 14.55 14.9119 14.535 14.9204C14.5199 14.9289 14.5029 14.9333 14.4855 14.9333H13.9509C13.9335 14.9333 13.9165 14.9289 13.9014 14.9204C13.8864 14.9119 13.8739 14.8997 13.8652 14.885L13.5979 14.4318C13.5892 14.417 13.5846 14.4003 13.5846 14.3832C13.5846 14.3662 13.5892 14.3494 13.5979 14.3347L13.8652 13.8815C13.8739 13.8668 13.8864 13.8546 13.9014 13.8461C13.9165 13.8376 13.9335 13.8331 13.9509 13.8332H14.4855C14.5029 13.8331 14.5199 13.8376 14.535 13.8461C14.55 13.8546 14.5625 13.8668 14.5712 13.8815L14.8385 14.3347C14.8472 14.3494 14.8518 14.3662 14.8518 14.3832C14.8518 14.4003 14.8472 14.417 14.8385 14.4318V14.4318Z" fill="#2F6B75"/>
<circle cx="19" cy="3" r="2.5" fill="#F9B148" stroke="#2F6B75"/>
</svg>
