<svg width="21" height="15" viewBox="0 0 21 15" fill="none" xmlns="http://www.w3.org/2000/svg">
<path d="M4.47025 0H0.186746C0.0836089 0 0 0.0818518 0 0.182821V0.956961C0 1.05793 0.0836089 1.13978 0.186746 1.13978H4.47025C4.57339 1.13978 4.657 1.05793 4.657 0.956961V0.182821C4.657 0.0818518 4.57339 0 4.47025 0Z" fill="#FFFEF8"/>
<path d="M10.6202 13.5255L9.83413 14.8577C9.80852 14.9012 9.77158 14.9373 9.72707 14.9623C9.68257 14.9872 9.63209 15.0002 9.58079 14.9999H8.00999C7.95892 15 7.90873 14.9869 7.86449 14.9619C7.82025 14.9369 7.78354 14.901 7.75805 14.8577L6.97288 13.5255C6.94746 13.4822 6.93408 13.4332 6.93408 13.3832C6.93408 13.3333 6.94746 13.2843 6.97288 13.241L7.75897 11.9084C7.78446 11.865 7.82119 11.8291 7.86542 11.8041C7.90966 11.7791 7.95985 11.766 8.01092 11.7661H9.58079C9.63186 11.766 9.68205 11.7791 9.72629 11.8041C9.77053 11.8291 9.80724 11.865 9.83273 11.9084L10.6188 13.241C10.6445 13.2841 10.6581 13.3331 10.6583 13.3831C10.6586 13.433 10.6454 13.4821 10.6202 13.5255Z" fill="#FFFEF8"/>
<path d="M9.41746 13.4319L9.15015 13.885C9.14143 13.8997 9.12893 13.9119 9.11389 13.9204C9.09886 13.9289 9.08181 13.9334 9.06446 13.9334H8.52937C8.51202 13.9334 8.49497 13.9289 8.47993 13.9204C8.4649 13.9119 8.45241 13.8997 8.44369 13.885L8.17638 13.4319C8.16767 13.4171 8.16309 13.4004 8.16309 13.3833C8.16309 13.3663 8.16767 13.3495 8.17638 13.3348L8.44369 12.8816C8.45241 12.8669 8.4649 12.8547 8.47993 12.8462C8.49497 12.8377 8.51202 12.8333 8.52937 12.8333H9.06446C9.08181 12.8333 9.09886 12.8377 9.11389 12.8462C9.12893 12.8547 9.14143 12.8669 9.15015 12.8816L9.41746 13.3348C9.42617 13.3495 9.43075 13.3663 9.43075 13.3833C9.43075 13.4004 9.42617 13.4171 9.41746 13.4319Z" fill="#2F6B75"/>
<path d="M15.6494 10.7447H7.36643C7.18892 10.7444 7.01459 10.6986 6.86087 10.6117C6.70714 10.5248 6.5794 10.3999 6.49044 10.2495L2.43607 3.37438C2.34416 3.21832 2.308 3.03673 2.3333 2.85831C2.3586 2.67988 2.44393 2.5148 2.57578 2.38915C2.73654 2.24031 2.95016 2.15856 3.17141 2.1612H19.8435C20.0647 2.15851 20.2783 2.24027 20.4391 2.38915C20.5709 2.51472 20.6562 2.67973 20.6815 2.85807C20.7068 3.03642 20.6707 3.21794 20.5788 3.37392L16.5249 10.2482C16.4361 10.3987 16.3086 10.5238 16.1549 10.611C16.0013 10.6981 15.8269 10.7442 15.6494 10.7447ZM7.7348 9.60488H15.2791C15.3641 9.60455 15.4475 9.58245 15.521 9.54078C15.5946 9.49911 15.6557 9.43931 15.6983 9.36735L19.11 3.58182C19.1267 3.55341 19.1356 3.52117 19.1356 3.48837C19.1356 3.45556 19.1267 3.42332 19.11 3.39491C19.0932 3.36649 19.0691 3.3429 19.0401 3.32649C19.0111 3.31008 18.9782 3.30144 18.9447 3.30143H4.06416C4.03064 3.30144 3.99772 3.31008 3.9687 3.32649C3.93968 3.3429 3.91557 3.36649 3.89882 3.39491C3.88206 3.42332 3.87325 3.45556 3.87325 3.48837C3.87325 3.52117 3.88207 3.55341 3.89883 3.58182L7.31101 9.36735C7.35394 9.44005 7.41576 9.50032 7.4902 9.54204C7.56463 9.58376 7.64903 9.60544 7.7348 9.60488Z" fill="#FFFEF8"/>
<path d="M16.0423 13.5255L15.2563 14.8577C15.2308 14.901 15.194 14.9369 15.1498 14.9619C15.1056 14.9869 15.0554 15 15.0043 14.9999H13.433C13.382 15 13.3318 14.9869 13.2875 14.9619C13.2433 14.9369 13.2066 14.901 13.1811 14.8577L12.395 13.5255C12.3696 13.4822 12.3562 13.4332 12.3562 13.3832C12.3562 13.3333 12.3696 13.2843 12.395 13.241L13.1811 11.9084C13.2066 11.865 13.2433 11.8291 13.2875 11.8041C13.3318 11.7791 13.382 11.766 13.433 11.7661H15.0043C15.0554 11.766 15.1056 11.7791 15.1498 11.8041C15.194 11.8291 15.2308 11.865 15.2563 11.9084L16.0423 13.241C16.0678 13.2843 16.0811 13.3333 16.0811 13.3832C16.0811 13.4332 16.0678 13.4822 16.0423 13.5255Z" fill="#FFFEF8"/>
<path d="M14.8384 13.4319L14.5711 13.885C14.5624 13.8998 14.5499 13.912 14.5349 13.9205C14.5198 13.929 14.5028 13.9334 14.4854 13.9334H13.9508C13.9334 13.9334 13.9163 13.929 13.9013 13.9205C13.8862 13.912 13.8738 13.8998 13.8651 13.885L13.5978 13.4319C13.5891 13.4171 13.5845 13.4004 13.5845 13.3833C13.5845 13.3663 13.5891 13.3495 13.5978 13.3348L13.8651 12.8816C13.8738 12.8669 13.8862 12.8546 13.9013 12.8462C13.9163 12.8377 13.9334 12.8332 13.9508 12.8333H14.4854C14.5028 12.8332 14.5198 12.8377 14.5349 12.8462C14.5499 12.8546 14.5624 12.8669 14.5711 12.8816L14.8384 13.3348C14.8471 13.3495 14.8517 13.3663 14.8517 13.3833C14.8517 13.4004 14.8471 13.4171 14.8384 13.4319Z" fill="#2F6B75"/>
</svg>
