<svg width="20" height="14" viewBox="0 0 20 14" fill="none" xmlns="http://www.w3.org/2000/svg">
<path d="M7.70351 9.9829C7.68827 10.0415 7.66166 10.0964 7.6252 10.1446C7.58874 10.1928 7.54316 10.2332 7.49109 10.2637L1.15931 13.938C1.08961 13.9786 1.01046 14 0.929895 13.9999C0.889539 13.9999 0.849363 13.9945 0.810408 13.9839C0.752082 13.9687 0.69735 13.942 0.649393 13.9054C0.601435 13.8687 0.561211 13.8228 0.531072 13.7704L0.0616144 12.9532C0.0314159 12.9007 0.0118152 12.8426 0.00393209 12.7825C-0.00395105 12.7223 4.6244e-05 12.6611 0.0156786 12.6025C0.0313109 12.5438 0.0582709 12.4889 0.0950387 12.4407C0.131806 12.3926 0.177662 12.3522 0.229968 12.3218L6.56174 8.64745C6.66741 8.58629 6.79288 8.56976 6.91066 8.60148C7.02844 8.6332 7.12889 8.71058 7.18997 8.81665L7.65943 9.63382C7.68931 9.68621 7.70859 9.74402 7.71615 9.80393C7.72371 9.86384 7.71942 9.92466 7.70351 9.9829V9.9829Z" fill="#FFFEF8"/>
<path d="M15.068 13.0561H8.61995C8.46006 13.0558 8.30304 13.0133 8.16458 12.933C8.02611 12.8526 7.91102 12.7372 7.8308 12.5982L4.60624 6.98576C4.5264 6.84657 4.48438 6.68873 4.48438 6.52807C4.48438 6.3674 4.5264 6.20956 4.60624 6.07037L7.82974 0.457961C7.90996 0.318949 8.02505 0.203506 8.16351 0.12315C8.30198 0.0427941 8.459 0.000332402 8.61889 0H15.068C15.2278 0.00031839 15.3848 0.0427783 15.5232 0.12314C15.6616 0.203503 15.7765 0.318955 15.8566 0.457961L19.0807 6.07037C19.1605 6.20956 19.2025 6.3674 19.2025 6.52807C19.2025 6.68873 19.1605 6.84657 19.0807 6.98576L15.8561 12.5992C15.7759 12.738 15.661 12.8532 15.5227 12.9333C15.3844 13.0135 15.2277 13.0558 15.068 13.0561V13.0561ZM8.86052 11.7217H14.8275L17.8104 6.5278L14.8275 1.33438H8.85999L5.87651 6.5278L8.86052 11.7217Z" fill="#FFFEF8"/>
</svg>
