<svg width="120" height="58" viewBox="0 0 120 58" fill="none" xmlns="http://www.w3.org/2000/svg">
<path d="M118.523 13.1099H29.5882C28.8002 13.1099 28.1614 13.745 28.1614 14.5285V42.4334C28.1614 43.2169 28.8002 43.852 29.5882 43.852H118.523C119.311 43.852 119.95 43.2169 119.95 42.4334V14.5285C119.95 13.745 119.311 13.1099 118.523 13.1099Z" fill="#F9B148"/>
<path d="M68.0081 19.8696V19.1079H65.9684V21.8403H68.0081V20.9739H69.3297V21.9831C69.3297 22.3639 68.9849 22.5544 68.2859 22.5544H65.6811C64.9821 22.5544 64.6373 22.3639 64.6373 21.9831V18.9746C64.6373 18.5938 64.9821 18.4034 65.6811 18.4034H68.2859C68.9849 18.4034 69.3297 18.5938 69.3297 18.9746V19.8696H68.0081Z" fill="#FFFEF8"/>
<path d="M75.7363 18.9365V22.5544H74.3956V19.1174H72.2122V22.5258H70.8811V15.9851H72.2122V18.47L73.3901 18.4034C73.9551 18.4034 74.3477 18.3462 74.7021 18.3462C75.382 18.3748 75.7363 18.5652 75.7363 18.9365Z" fill="#FFFEF8"/>
<path d="M81.5107 20.6883L81.9991 20.4503V18.9746C81.9991 18.5938 81.6543 18.4034 80.9553 18.4034H78.3409C77.6514 18.4034 77.2971 18.5938 77.2971 18.9746V21.9831C77.2971 22.3639 77.6514 22.5544 78.3409 22.5544H80.984C81.683 22.5544 82.0278 22.3639 82.0278 21.9831V21.1548H80.7254V21.8689H78.5995V20.6883H81.5107ZM78.5707 20.0219V19.0698H80.6967V20.0219H78.5707Z" fill="#FFFEF8"/>
<path d="M84.9678 16.0137H83.6462V22.5544H84.9678V16.0137Z" fill="#FFFEF8"/>
<path d="M90.3975 18.3748H87.6395C86.95 18.3748 86.5957 18.5652 86.5957 18.9461V21.9546C86.5957 22.3354 86.95 22.5258 87.6395 22.5258H90.3975C91.0965 22.5258 91.4509 22.3354 91.4509 21.9546V18.9461C91.4509 18.5938 91.0965 18.3748 90.3975 18.3748ZM90.1102 19.0793V21.8118H87.9172V19.0793H90.1102Z" fill="#FFFEF8"/>
<path d="M97.9531 22.5544H96.3922L94.3429 20.7074V22.5544H93.0022V16.0137H94.3429V19.8886L96.2485 18.4034H97.5892V18.5747L97.5413 18.6319L95.3196 20.2694L97.9531 22.5544Z" fill="#FFFEF8"/>
<path d="M102.473 18.3748H99.7152C99.0161 18.3748 98.6714 18.5652 98.6714 18.9461V21.9546C98.6714 22.3354 99.0161 22.5258 99.7152 22.5258H102.473C103.172 22.5258 103.527 22.3354 103.527 21.9546V18.9461C103.527 18.5938 103.172 18.3748 102.473 18.3748ZM102.186 19.0793V21.8118H100.002V19.0793H102.186Z" fill="#FFFEF8"/>
<path d="M109.914 18.4034L107.807 22.5639H106.658L104.542 18.4034H105.949L107.242 21.3072L108.544 18.4034H109.914Z" fill="#FFFEF8"/>
<path d="M71.9153 40.4436H70.4022V32.7414H66.3036V40.4436H64.7905V24.4204H66.3036V31.4657H70.4022V24.4204H71.9153V40.4436Z" fill="#FFFEF8"/>
<path d="M81.8363 39.3202C81.8407 39.4723 81.8132 39.6237 81.7555 39.7647C81.6978 39.9057 81.6111 40.0332 81.5011 40.139C81.2592 40.3528 80.9435 40.4653 80.6201 40.4532H75.832C75.5112 40.4669 75.1979 40.354 74.9605 40.139C74.8485 40.0346 74.7605 39.9074 74.7027 39.7661C74.6448 39.6248 74.6184 39.4726 74.6253 39.3202V25.5629C74.6184 25.4105 74.6448 25.2583 74.7027 25.117C74.7605 24.9757 74.8485 24.8484 74.9605 24.7441C75.1979 24.5291 75.5112 24.4162 75.832 24.4299H80.6201C80.9435 24.4177 81.2592 24.5303 81.5011 24.7441C81.6111 24.8499 81.6978 24.9774 81.7555 25.1184C81.8132 25.2593 81.8407 25.4108 81.8363 25.5629V39.3202ZM80.3232 39.1964V25.6867H76.1575V39.1964H80.3232Z" fill="#FFFEF8"/>
<path d="M91.5849 40.4436H90.5411L86.002 28.6571V40.4436H84.5656V24.4204H85.6955L90.1581 35.9975V24.4204H91.5849V40.4436Z" fill="#FFFEF8"/>
<path d="M99.9067 40.4436H94.3046V24.4204H99.8397V25.6771H95.8176V31.7037H99.4853V32.989H95.8176V39.2345H99.9067V40.4436Z" fill="#FFFEF8"/>
<path d="M109.119 24.5061L107.07 30.9896C106.811 31.6466 106.466 32.7224 106.035 34.2362V40.4436H104.522V34.2362C104.406 33.6797 104.249 33.1324 104.053 32.5986C103.708 31.6466 103.517 31.0848 103.488 30.9896L101.42 24.5061V24.4204H102.952L105.298 32.4368L107.616 24.4204H109.138L109.119 24.5061Z" fill="#FFFEF8"/>
<path d="M53.9886 15.1997C53.9886 7.86726 48.0097 1.92317 40.6345 1.92317C33.2592 1.92317 27.2804 7.86726 27.2804 15.1997C27.2804 22.5321 33.2592 28.4762 40.6345 28.4762C48.0097 28.4762 53.9886 22.5321 53.9886 15.1997Z" fill="#FFFEF8"/>
<path d="M48.6546 30.4089H32.576C32.3411 30.4085 32.1104 30.3467 31.907 30.2297C31.7037 30.1128 31.5348 29.9447 31.4173 29.7424L23.3637 15.8709C23.246 15.6683 23.1841 15.4384 23.1841 15.2044C23.1841 14.9705 23.246 14.7406 23.3637 14.538L31.4173 0.666437C31.5348 0.464153 31.7037 0.296112 31.907 0.179147C32.1104 0.0621821 32.3411 0.000402742 32.576 -3.8147e-06H48.6546C48.8895 0.000402742 49.1202 0.0621821 49.3236 0.179147C49.527 0.296112 49.6958 0.464153 49.8133 0.666437L57.9052 14.5666C58.0229 14.7692 58.0849 14.999 58.0849 15.233C58.0849 15.467 58.0229 15.6968 57.9052 15.8994L49.8516 29.771C49.7273 29.9737 49.5508 30.1396 49.3404 30.2518C49.1299 30.3639 48.8932 30.4182 48.6546 30.4089V30.4089ZM34.7499 26.6006H46.4425C46.6774 26.6002 46.9081 26.5384 47.1115 26.4215C47.3148 26.3045 47.4837 26.1365 47.6012 25.9342L53.4427 15.8709C53.5604 15.6683 53.6223 15.4384 53.6223 15.2044C53.6223 14.9705 53.5604 14.7406 53.4427 14.538L47.6012 4.47469C47.4837 4.2724 47.3148 4.10436 47.1115 3.9874C46.9081 3.87043 46.6774 3.80865 46.4425 3.80825H34.7882C34.5532 3.80865 34.3225 3.87043 34.1192 3.9874C33.9158 4.10436 33.7469 4.2724 33.6294 4.47469L27.7879 14.5666C27.6703 14.7692 27.6083 14.999 27.6083 15.233C27.6083 15.467 27.6703 15.6968 27.7879 15.8994L33.6294 25.9628C33.7505 26.1597 33.9209 26.3221 34.124 26.4339C34.3272 26.5457 34.556 26.6032 34.7882 26.6006H34.7499Z" fill="#F9B148"/>
<path d="M53.9886 41.8003C53.9886 34.4679 48.0097 28.5238 40.6345 28.5238C33.2592 28.5238 27.2804 34.4679 27.2804 41.8003C27.2804 49.1327 33.2592 55.0768 40.6345 55.0768C48.0097 55.0768 53.9886 49.1327 53.9886 41.8003Z" fill="#FFFEF8"/>
<path d="M48.6546 57.0095H32.576C32.3411 57.0091 32.1104 56.9473 31.907 56.8304C31.7037 56.7134 31.5348 56.5454 31.4173 56.3431L23.3637 42.4715C23.246 42.2689 23.1841 42.039 23.1841 41.8051C23.1841 41.5711 23.246 41.3413 23.3637 41.1386L31.4173 27.2671C31.5348 27.0648 31.7037 26.8967 31.907 26.7798C32.1104 26.6628 32.3411 26.601 32.576 26.6006H48.6546C48.8895 26.601 49.1202 26.6628 49.3236 26.7798C49.5269 26.8967 49.6958 27.0648 49.8133 27.2671L57.8669 41.1386C57.9846 41.3413 58.0465 41.5711 58.0465 41.8051C58.0465 42.039 57.9846 42.2689 57.8669 42.4715L49.8133 56.3431C49.6958 56.5454 49.5269 56.7134 49.3236 56.8304C49.1202 56.9473 48.8895 57.0091 48.6546 57.0095ZM34.7499 53.2013H46.4425C46.6774 53.2009 46.9081 53.1391 47.1115 53.0221C47.3148 52.9052 47.4837 52.7371 47.6012 52.5348L53.4427 42.4715C53.5604 42.2689 53.6223 42.039 53.6223 41.8051C53.6223 41.5711 53.5604 41.3413 53.4427 41.1386L47.6012 31.0753C47.4837 30.873 47.3148 30.705 47.1115 30.588C46.9081 30.4711 46.6774 30.4093 46.4425 30.4089H34.7882C34.5532 30.4093 34.3225 30.4711 34.1191 30.588C33.9158 30.705 33.7469 30.873 33.6294 31.0753L27.7879 41.1386C27.6702 41.3413 27.6083 41.5711 27.6083 41.8051C27.6083 42.039 27.6702 42.2689 27.7879 42.4715L33.6294 52.5348C33.7469 52.7371 33.9158 52.9052 34.1191 53.0221C34.3225 53.1391 34.5532 53.2009 34.7882 53.2013H34.7499Z" fill="#F9B148"/>
<path d="M30.7566 28.481C30.7566 21.1485 24.7778 15.2044 17.4025 15.2044C10.0273 15.2044 4.04846 21.1485 4.04846 28.481C4.04846 35.8134 10.0273 41.7575 17.4025 41.7575C24.7778 41.7575 30.7566 35.8134 30.7566 28.481Z" fill="#FFFEF8"/>
<path d="M25.4513 43.6902H9.39196C9.15702 43.6898 8.92632 43.628 8.72296 43.511C8.51959 43.394 8.35072 43.226 8.23324 43.0237L0.179613 29.1522C0.0619443 28.9495 0 28.7197 0 28.4857C0 28.2517 0.0619443 28.0219 0.179613 27.8193L8.23324 13.9477C8.35072 13.7454 8.51959 13.5774 8.72296 13.4604C8.92632 13.3435 9.15702 13.2817 9.39196 13.2813H25.4992C25.7342 13.2817 25.9649 13.3435 26.1682 13.4604C26.3716 13.5774 26.5405 13.7454 26.6579 13.9477L34.7212 27.8193C34.8388 28.0219 34.9008 28.2517 34.9008 28.4857C34.9008 28.7197 34.8388 28.9495 34.7212 29.1522L26.6292 43.0237C26.5101 43.2288 26.3382 43.3987 26.1312 43.5158C25.9242 43.6329 25.6895 43.6931 25.4513 43.6902ZM11.5562 39.8819H23.2392C23.4742 39.8815 23.7049 39.8197 23.9082 39.7028C24.1116 39.5858 24.2805 39.4178 24.398 39.2155L30.249 29.1522C30.3667 28.9495 30.4287 28.7197 30.4287 28.4857C30.4287 28.2517 30.3667 28.0219 30.249 27.8193L24.398 17.756C24.2805 17.5537 24.1116 17.3856 23.9082 17.2687C23.7049 17.1517 23.4742 17.0899 23.2392 17.0895H11.5562C11.3213 17.0899 11.0905 17.1517 10.8872 17.2687C10.6838 17.3856 10.5149 17.5537 10.3975 17.756L4.60384 27.8193C4.48617 28.0219 4.42422 28.2517 4.42422 28.4857C4.42422 28.7197 4.48617 28.9495 4.60384 29.1522L10.4454 39.2155C10.5587 39.4109 10.72 39.5746 10.9143 39.6912C11.1086 39.8077 11.3294 39.8734 11.5562 39.8819V39.8819Z" fill="#F9B148"/>
</svg>
